<svg width="20" height="16" viewBox="0 0 20 16" fill="none" xmlns="http://www.w3.org/2000/svg">
<g clip-path="url(#clip0)">
<path d="M3.24869 12.0235C3.36938 11.9022 3.53533 11.8315 3.71135 11.8315H19.6731C19.9648 11.8315 20.1106 12.1853 19.9045 12.3925L16.7513 15.5614C16.6306 15.6827 16.4647 15.7534 16.2887 15.7534H0.326886C0.0352091 15.7534 -0.110629 15.3996 0.0955561 15.1924L3.24869 12.0235Z" fill="white"/>
<path d="M3.24792 0.192053C3.37365 0.0707565 3.5396 0 3.71058 0H19.6724C19.964 0 20.1099 0.353782 19.9037 0.560998L16.7506 3.72988C16.6299 3.85117 16.4639 3.92193 16.2879 3.92193H0.326123C0.0344461 3.92193 -0.111392 3.56815 0.0947931 3.36093L3.24792 0.192053Z" fill="white"/>
<path d="M16.7513 6.06989C16.6306 5.94859 16.4647 5.87784 16.2887 5.87784H0.326886C0.0352091 5.87784 -0.110629 6.23162 0.0955561 6.43884L3.24869 9.60772C3.36938 9.72901 3.53533 9.79977 3.71135 9.79977H19.6731C19.9648 9.79977 20.1106 9.44599 19.9045 9.23877L16.7513 6.06989Z" fill="white"/>
</g>
<defs>
<clipPath id="clip0">
<rect width="20" height="15.7534" fill="white"/>
</clipPath>
</defs>
</svg>
