<svg width="410" height="100" viewBox="0 0 410 100" fill="none" xmlns="http://www.w3.org/2000/svg">
<path d="M41.7397 39.8159L33.0605 44.9825L27.9621 36.1001L36.7875 31.1321L41.7397 39.8159Z" fill="white"/>
<path d="M36.7875 31.1321L41.7555 22.4662L35.9854 12.4668L27.9621 26.0576L36.7875 31.1321Z" fill="white"/>
<path d="M50.5694 44.8905L41.7397 39.816L46.8987 31.1009L55.6137 36.2599L50.5694 44.8905Z" fill="white"/>
<path d="M55.6137 36.2599L65.6026 36.2293L71.3774 26.2327L55.5957 26.0796L55.6137 36.2599Z" fill="white"/>
<path d="M50.568 44.8934L50.4576 55.0199L60.5841 55.1303L60.6945 45.0038L50.568 44.8934Z" fill="white"/>
<path d="M60.5861 55.1277L65.607 63.7631L77.1518 63.7659L69.3934 50.022L60.5861 55.1277Z" fill="white"/>
<path d="M41.7642 60.0425L50.4591 55.0175L55.5575 63.8999L46.7321 68.8679L41.7642 60.0425Z" fill="white"/>
<path d="M46.7321 68.8679L41.7642 77.5338L47.5342 87.5332L55.5575 73.9424L46.7321 68.8679Z" fill="white"/>
<path d="M32.9503 55.1095L41.7642 60.0425L36.621 68.8991L27.9059 63.7401L32.9503 55.1095Z" fill="white"/>
<path d="M27.9059 63.7401L17.9171 63.7707L12.1423 73.7673L27.924 73.9204L27.9059 63.7401Z" fill="white"/>
<path d="M22.932 44.874L22.8216 55.0005L32.9481 55.1108L33.0585 44.9844L22.932 44.874Z" fill="white"/>
<path d="M22.9336 44.8723L17.9127 36.2369L6.36784 36.2341L14.1262 49.978L22.9336 44.8723Z" fill="white"/>
<path d="M27.9577 26.0518H12.1839L17.9127 36.234L27.9622 36.0958L27.9577 26.0518Z" fill="white"/>
<path d="M55.5935 26.0758L47.7066 12.4153L41.7555 22.4662L46.8987 31.1009L55.5935 26.0758Z" fill="white"/>
<path d="M69.3956 50.0182L77.2825 36.3577L65.6026 36.2293L60.6963 45.0008L69.3956 50.0182Z" fill="white"/>
<path d="M55.5619 73.9482H71.3358L65.607 63.766L55.5575 63.9043L55.5619 73.9482Z" fill="white"/>
<path d="M27.9261 73.9241L35.8131 87.5847L41.7642 77.5338L36.621 68.8991L27.9261 73.9241Z" fill="white"/>
<path d="M14.1241 49.9818L6.23711 63.6423L17.917 63.7707L22.8233 54.9992L14.1241 49.9818Z" fill="white"/>
<path d="M141.07 34.346L149.769 60.3601L157.237 34.346H168.069L155.431 74.7211H144.517L135.079 47.1479L125.806 74.7211H114.728L101.844 34.346H113.333L120.8 60.278L129.581 34.346H141.07Z" fill="white"/>
<path d="M210.004 63.1502C207.952 70.1256 201.551 75.9521 191.622 75.9521C180.543 75.9521 170.777 67.9919 170.777 54.3695C170.777 41.4855 180.297 33.1151 190.637 33.1151C203.11 33.1151 210.578 41.0753 210.578 54.0412C210.578 55.6004 210.414 57.2416 210.414 57.4057H181.528C181.774 62.7398 186.287 66.5969 191.703 66.5969C196.792 66.5969 199.582 64.0529 200.895 60.4421L210.004 63.1502ZM199.828 49.9381C199.664 45.9169 197.038 41.9779 190.801 41.9779C185.138 41.9779 182.02 46.2452 181.774 49.9381H199.828Z" fill="white"/>
<path d="M219.194 74.7211V15.3073H229.944V38.7775C231.75 35.9053 236.181 33.2792 242.172 33.2792C253.989 33.2792 260.8 42.3881 260.8 54.3695C260.8 66.597 253.25 75.7059 241.761 75.7059C236.181 75.7059 231.914 73.244 229.78 69.7974V74.7213H219.194V74.7211ZM239.874 43.0447C234.376 43.0447 229.78 47.0657 229.78 54.4515C229.78 61.755 234.376 65.9404 239.874 65.9404C245.454 65.9404 249.886 61.8371 249.886 54.4515C249.886 47.0658 245.454 43.0447 239.874 43.0447Z" fill="white"/>
<path d="M269.416 90.3132V34.346H280.002V39.2698C281.808 36.1514 286.321 33.4433 292.394 33.4433C304.211 33.4433 311.022 42.4702 311.022 54.4515C311.022 66.679 303.39 75.7058 291.984 75.7058C286.404 75.7058 282.3 73.4901 280.331 70.782V90.3131H269.416V90.3132ZM290.26 43.2089C284.68 43.2089 280.167 47.3941 280.167 54.5336C280.167 61.673 284.68 65.9404 290.26 65.9404C295.841 65.9404 300.272 61.755 300.272 54.5336C300.272 47.3941 295.841 43.2089 290.26 43.2089Z" fill="white"/>
<path d="M329.24 51.4972L339.17 50.0202C341.468 49.6919 342.206 48.543 342.206 47.1479C342.206 44.2757 339.99 41.8958 335.395 41.8958C330.635 41.8958 328.009 44.9321 327.681 48.4608L317.997 46.4093C318.654 40.0904 324.48 33.115 335.313 33.115C348.115 33.115 352.874 40.3366 352.874 48.4608V68.3202C352.874 70.4538 353.121 73.326 353.367 74.7211H343.355C343.109 73.6543 342.945 71.4386 342.945 69.8794C340.893 73.0798 337.036 75.87 331.045 75.87C322.429 75.87 317.177 70.0435 317.177 63.7246C317.177 56.503 322.511 52.482 329.24 51.4972ZM342.206 58.3905V56.5851L333.097 57.9803C330.307 58.3906 328.091 59.9498 328.091 63.0682C328.091 65.4481 329.815 67.7457 333.343 67.7457C337.939 67.7457 342.206 65.5301 342.206 58.3905Z" fill="white"/>
<path d="M365.184 90.6414L374.703 69.6332L357.552 34.346H369.779L380.53 57.9802L390.459 34.346H402.112L376.755 90.6414H365.184Z" fill="white"/>
</svg>
